<svg width="82" height="228" viewBox="0 0 82 228" fill="none" xmlns="http://www.w3.org/2000/svg">
<mask id="path-1-outside-1_3_18" maskUnits="userSpaceOnUse" x="0" y="52" width="82" height="97" fill="black">
<rect fill="white" y="52" width="82" height="97"/>
<path fill-rule="evenodd" clip-rule="evenodd" d="M49.6206 68.9313L41 54L32.3794 68.9313C14.4316 72.8735 1 88.8682 1 108C1 130.091 18.9086 148 41 148C63.0914 148 81 130.091 81 108C81 88.8682 67.5684 72.8735 49.6206 68.9313Z"/>
</mask>
<path fill-rule="evenodd" clip-rule="evenodd" d="M49.6206 68.9313L41 54L32.3794 68.9313C14.4316 72.8735 1 88.8682 1 108C1 130.091 18.9086 148 41 148C63.0914 148 81 130.091 81 108C81 88.8682 67.5684 72.8735 49.6206 68.9313Z" fill="#434141"/>
<path d="M41 54L41.866 53.5L41 52L40.134 53.5L41 54ZM49.6206 68.9313L48.7546 69.4313L48.9751 69.8133L49.406 69.908L49.6206 68.9313ZM32.3794 68.9313L32.594 69.908L33.0249 69.8133L33.2454 69.4313L32.3794 68.9313ZM40.134 54.5L48.7546 69.4313L50.4866 68.4313L41.866 53.5L40.134 54.5ZM33.2454 69.4313L41.866 54.5L40.134 53.5L31.5134 68.4313L33.2454 69.4313ZM2 108C2 89.3477 15.095 73.7516 32.594 69.908L32.1649 67.9546C13.7681 71.9954 0 88.3887 0 108H2ZM41 147C19.4609 147 2 129.539 2 108H0C0 130.644 18.3563 149 41 149V147ZM80 108C80 129.539 62.5391 147 41 147V149C63.6437 149 82 130.644 82 108H80ZM49.406 69.908C66.905 73.7516 80 89.3477 80 108H82C82 88.3887 68.2319 71.9954 49.8351 67.9546L49.406 69.908Z" fill="black" mask="url(#path-1-outside-1_3_18)"/>
<rect x="21" y="108" width="40" height="120" rx="20" fill="black"/>
<rect x="23" y="111" width="36" height="114" rx="18" fill="#434141"/>
<rect x="25" y="113" width="32" height="110" rx="16" fill="black"/>
<rect x="27" y="115" width="28" height="106" rx="14" fill="#434141"/>
<rect x="29" y="117" width="24" height="102" rx="12" fill="black"/>
<rect x="31" y="119" width="20" height="98" rx="10" fill="#434141"/>
<rect x="33" y="121" width="16" height="94" rx="8" fill="black"/>
<rect x="35" y="123" width="12" height="90" rx="6" fill="#434141"/>
<rect x="37" y="125" width="8" height="86" rx="4" fill="black"/>
<rect x="39" y="127" width="4" height="82" rx="2" fill="#434141"/>
</svg>
